<svg width="500" height="500" viewBox="0 0 500 500" fill="none" xmlns="http://www.w3.org/2000/svg">
<path d="M111.018 395.654L73 457H314.221C416.652 446.834 448.087 361.329 451 319.848V299.253C441.911 196.191 356.027 163.415 314.221 159.909H232.94C222.102 143.784 203.953 138.584 196.232 138H185.745C150.435 141.505 138.986 172.471 137.675 187.515V194.964C142.22 230.37 170.45 242.435 183.997 244.041H198.417C214.848 242.639 228.861 229.143 233.814 222.57H314.221C370.156 230.983 387.345 277.197 388.947 299.253V319.848C381.256 374.884 335.051 393.317 312.91 395.654H111.018Z" fill="#52AF9A" stroke="#52AF9A"/>
<path d="M381.982 105.154L420 44H178.779C76.3477 54.1341 44.9133 139.371 42 180.723V201.253C51.0895 303.991 136.973 336.665 178.779 340.159H260.06C270.898 356.234 289.047 361.418 296.768 362H307.255C342.565 358.505 354.014 327.637 355.325 312.64V305.214C350.78 269.92 322.55 257.893 309.003 256.291H294.583C278.152 257.689 264.139 271.143 259.186 277.695H178.779C122.844 269.308 105.655 223.239 104.053 201.253V180.723C111.744 125.859 157.949 107.484 180.09 105.154H381.982Z" fill="#0E8DC1" stroke="#0E8DC1"/>
</svg>
